<svg width="20" height="20" viewBox="0 0 20 20" fill="none" xmlns="http://www.w3.org/2000/svg">
<path fill-rule="evenodd" clip-rule="evenodd" d="M2 2H12V7H14V2V0H12H2H0V2V12V14H2H7V12H2V2Z" fill="#231F20"/>
<path fill-rule="evenodd" clip-rule="evenodd" d="M18 18L8 18L8 12L6 12L6 18L6 20L8 20L18 20L20 20L20 18L20 8L20 6L18 6L12 6L12 8L18 8L18 18Z" fill="#231F20"/>
<path fill-rule="evenodd" clip-rule="evenodd" d="M6.5 6.5H8C8.27614 6.5 8.5 6.72386 8.5 7C8.5 7.27614 8.27614 7.5 8 7.5H7.5V8C7.5 8.27614 7.27614 8.5 7 8.5C6.72386 8.5 6.5 8.27614 6.5 8V6.5ZM9.5 7C9.5 6.72386 9.72386 6.5 10 6.5H11C11.2761 6.5 11.5 6.72386 11.5 7C11.5 7.27614 11.2761 7.5 11 7.5H10C9.72386 7.5 9.5 7.27614 9.5 7ZM7 9.5C7.27614 9.5 7.5 9.72386 7.5 10V11C7.5 11.2761 7.27614 11.5 7 11.5C6.72386 11.5 6.5 11.2761 6.5 11V10C6.5 9.72386 6.72386 9.5 7 9.5Z" fill="#231F20"/>
<path fill-rule="evenodd" clip-rule="evenodd" d="M13.5 13.5H12C11.7239 13.5 11.5 13.2761 11.5 13C11.5 12.7239 11.7239 12.5 12 12.5H12.5V12C12.5 11.7239 12.7239 11.5 13 11.5C13.2761 11.5 13.5 11.7239 13.5 12V13.5ZM10.5 13C10.5 13.2761 10.2761 13.5 10 13.5H9C8.72386 13.5 8.5 13.2761 8.5 13C8.5 12.7239 8.72386 12.5 9 12.5H10C10.2761 12.5 10.5 12.7239 10.5 13ZM13 10.5C12.7239 10.5 12.5 10.2761 12.5 10V9C12.5 8.72386 12.7239 8.5 13 8.5C13.2761 8.5 13.5 8.72386 13.5 9V10C13.5 10.2761 13.2761 10.5 13 10.5Z" fill="#231F20"/>
</svg>
